<svg id="Capa_1" data-name="Capa 1" xmlns="http://www.w3.org/2000/svg" viewBox="0 0 220.56 258.28"><defs><style>.cls-1{fill:#f3671f;}.cls-2{fill:#202356;}.cls-3{fill:#ef651f;}.cls-4{fill:#ad5022;}.cls-5{fill:#fff;}.cls-6{fill:#a2bdca;}</style></defs><title>Sin título-1</title><path class="cls-1" d="M278.13,331.83s43.71,1.93,57-3.66c.19-5.78-8.95-26.4-8.95-26.4l10,7.37s3.55-34.34,9.33-35.49c7.26,1.28,22.2,10.77,22.2,10.77s8-17.45,9.69-17.88c2.17-.15,16.48,8.42,29.35,29.06,13,20.9,9.34,40.44,9.34,40.44s13.77,15.7,24.73,29.73c2.39,3.06,7.63,11.6,9.37,18.11s0,11,0,11S479,421,481.35,423.1s-12,22.77-16.59,24.89a13.78,13.78,0,0,1-8.19,1.29s.78,6.37-5.17,13.69-13.19,9.06-22.63,11-67.13-6.14-67.13-6.14,22-8.74,23.38-10.67c-6-4-23.61-18-26.31-20.73-5.32,2-18.08,8.45-21.31,35.06s18.53,53.34,18.53,53.34-17.4-8.16-26.83-16.53c-15.31-13.58-25.62-30.1-25.54-31l-4,22a234.37,234.37,0,0,1-15.2-33.51,110.9,110.9,0,0,1-4.63-24c-3.23.32-12.5,29.42-12.5,29.42s-13.05-38.07-1.29-73,26.83-43.1,28.77-45.79A103.48,103.48,0,0,1,278.13,331.83Z" transform="translate(-261.05 -266.54)"/><path class="cls-2" d="M290.32,337.65s40.41.35,52.59-4.77c.17-5.29-4.59-15.53-4.59-15.53l3.18,3.71s1.94-38.82,7.23-39.88c6.88-1.24,22.15,13.06,22.15,13.06s5.7-17.83,8.38-18c2-.14,14.3,8.11,23.47,28.41S410,339.06,410,339.06s14.84,16.09,24.88,28.94c2.19,2.81,7,10.62,8.59,16.59a17.45,17.45,0,0,1,0,10.08s27.94,27,30.06,28.92-8.12,18.53-12.36,20.47-9.28,0-9.28,0,.6,6.53-4.85,13.23-8.45,8.47-17.1,10.24-45.35-1.41-45.35-1.41,12-6.18,13.23-7.94c-6.18-1.24-34.76-28.86-40.06-28.24s-23.86,14.27-26.82,38.65,8.12,39.7,8.12,39.7-14.83-7.94-23.3-20.82-16.23-33.88-16.23-33.88l-3.71,24.7a92.87,92.87,0,0,1-9-23.64c-3.35-14.12-3-33.36-3-33.36l-15.53,29.47s-5.82-22.23,4.94-54.17,30.53-42.25,30.53-42.25Z" transform="translate(-261.05 -266.54)"/><path class="cls-3" d="M352.85,291.48c2-1.24,13.42,7.88,23.06,20.23,11.44,14.67,21.23,33.11,21.23,33.11l1.62-7.12S439,380.65,436.14,391c-3.17,5-13.88,5-13.88,5s5.18-4.88,5.27-8.19c-.92.25-6.09,7-9,2.91-7.28-20.54-19.72-27.48-19.72-27.48s3,7.88,4.21,9.29a38.49,38.49,0,0,0-9.41-2.71,17.5,17.5,0,0,1,2.11,4.47C396.82,378.63,399,386,402,389c4.39,4.48,14.3,7,14.3,7a14.27,14.27,0,0,1-4.89,2.8,89.64,89.64,0,0,0,22.19.3c4.35-.57,25.65,18.76,25.65,22.33s-6.47,6.79-6.47,6.79-33-11-33.62-12.28-22-19.94-22-19.94l-26.83-27.26L327,361.63l-14-6.4-7.7-9.77s33.87-3.64,39.4-4.81c2.47,4.23,14,8.11,14,8.11l-4.26-8.47a56.09,56.09,0,0,0,11.44,5.53c6.47,2.24,10.22,1.91,10.22,1.91s-1.6-2.57-1.62-3.88c3.28,1.74,10,1.5,10,1.5S362,313.69,359.32,312.81s-7.11,16.81-7.11,16.81a75.35,75.35,0,0,1-3.36-19.8C348.68,302.07,351,292.63,352.85,291.48Z" transform="translate(-261.05 -266.54)"/><path class="cls-4" d="M388.5,362.06c.47-2.27-3.65-8.47-3.65-8.47s7.76,1.16,16.93,8.1c3.34,2.53,10,7.25,14.32,14.32,2.29,3.72,3.85,12.05,4.12,12.44,2.43,3.51,4.53,1.72,4.53,1.72a16,16,0,0,1-3.14,1.78,2.42,2.42,0,0,1-3.13-1.23s-5.37-12.7-9.32-17c-3.55-4-5.76-6.91-10.4-10.48,1.79,4.42,4.21,9.29,4.21,9.29s-2-.63-5-1.76a24.43,24.43,0,0,0-4.4-.95c3.7,4.68,4.6,16.24,9.45,20.09S416.26,396,416.26,396s-3.2,3-4.89,2.8c3.63,5.49,10.07,13.26,13,15.26s26.35,9.18,26.35,9.18l-5,3.74-42.67-7-27.76-34.47L313,355.23l-7.7-9.77,39.4-4.81a16.4,16.4,0,0,0,5.77,5.17,28.51,28.51,0,0,0,8.23,2.94A71.82,71.82,0,0,1,371,353.12C375.84,355.6,382.48,359.79,388.5,362.06Z" transform="translate(-261.05 -266.54)"/><path class="cls-5" d="M365.08,355.59s19.53,14.7,28.48,26.47a269.7,269.7,0,0,1,17.52,27.18v-7.77s2.91,9.28,8,14.47S447,424.36,447,426.29a4.7,4.7,0,0,1-1.21,3.13s-3.07,4.76-4.83,5.46-22-2.37-28-7.9-5.54-10.8-10.94-22.8c-10.71-22.59-31.3-33.42-31.3-33.42l5.88,8.95-.58.7s-80.12,21.94-85.77,22.94-17.06,16.83-17.06,16.83,2.12-14.12,13.3-34.36S313,355.23,313,355.23s11.47-2.35,29.82.59,25.88,8.47,25.88,8.47Z" transform="translate(-261.05 -266.54)"/><path class="cls-5" d="M451.67,432.29c-.94,1.89-2.86,2.95-3.76,3.77s-4.47,0-4.47,0,3.64-4.94,4.94-5.53S452.61,430.41,451.67,432.29Z" transform="translate(-261.05 -266.54)"/><path class="cls-6" d="M413.67,459.94l-4.59,3.35s15.18,3,28.24-6.17,7.06-16.24,7.06-16.24l-39.71-16.59-28.06-44.58L356,380.88a93.24,93.24,0,0,0-18.71,3.53l3.17-9.91s-12.52,2.5-21,6.74A137.51,137.51,0,0,0,302,392.18l2.29-8.65s-11.29,9-16.94,16.23-14.12,20.42-14.12,20.42,13.83-14.86,17.06-16.83c-2.41,27.21,2.71,47.94,2.71,47.94s6.35-16.76,9.88-21.35c4.41,33,21.35,57.53,21.35,57.53s-5.47-23.12,6.71-48.88c7.23-11.83,15.88-15.71,15.88-15.71s12.35-2.71,20.65,3.88l28.41,22.59c9.18,6,17.82,10.59,17.82,10.59" transform="translate(-261.05 -266.54)"/><path class="cls-2" d="M445.08,415.43c1.69-1.13,12.54,4.37,13.95,5.92S453.25,433,453.25,433L449,429.23s-7.26,5-5.91,6.91c1.77,2.43,6.51,6,1.64,5.3,0,0-15-2.49-24.46-6.29s-20.42-15.07-20.42-15.07-23.95-5.64-39.3-19.16c-2.2-2-8.93-9.14-6.06-12.53,4.86-5.75,20-7.75,21.69-7.89s-5.49-9.44-5.49-9.44,15.35,7.47,25.35,22.4c7.61,12.53,12.12,24.65,15.78,30S422,431.21,422,431.21s17.11,4.4,18.45,3.24c2.12-1.84,7.05-7.33,7.05-7.33a11.47,11.47,0,0,1-3-4.22C443.67,420.5,443.39,416.56,445.08,415.43Z" transform="translate(-261.05 -266.54)"/><path class="cls-5" d="M369.08,388.41s7.17.9,8.48,2.35a12.59,12.59,0,0,0-4.48,3,15.13,15.13,0,0,1,7.06,2.26c1.6,1,4.36,6.18,4.36,6.18s-9.46-7.35-18.68-6.88c-.5-1,4.79-3.59,4.79-3.59a10.21,10.21,0,0,0-5.38-2.49,15.8,15.8,0,0,0-6.5,1.19c-.57.34,8.88,13.28,27.19,21.84,6.05,3.36,17.87,3.93,17.87,3.93l-2.94-5.89s-13.65-22.7-17.06-23.53S369.08,388.41,369.08,388.41Z" transform="translate(-261.05 -266.54)"/><path class="cls-2" d="M340.43,374.5s-13.38,6.9-27.18,27.61c7.18.07,15.91.42,15.91.42S317.34,416.18,315.22,422c18.73-1.27,33.24,1.8,34.51,2.87s2.67,5.72,2.67,5.72l3.57-4.32,15.36,4.05a49.21,49.21,0,0,0-20.9-11.56c-13.1-3.52-22.52-3.26-25.43-3.08-1.15-1.94,14.73-18.75,14.73-18.75l-15.92-.71Z" transform="translate(-261.05 -266.54)"/><path class="cls-5" d="M411.59,390.73c.36-.77,1-2,0-5.11S403.65,374.5,403,374.5s-2.56,2.43-1.58,5.57C403.34,385.67,409.62,387.42,411.59,390.73Z" transform="translate(-261.05 -266.54)"/></svg>